<svg width="2198" height="816" viewBox="0 0 2198 816" fill="none" xmlns="http://www.w3.org/2000/svg">
<rect width="2198" height="816" fill="#7DCFF4" fill-opacity="0.54"/>
<path d="M408 734C562.64 734 688 608.64 688 454C688 299.36 562.64 174 408 174C253.36 174 128 299.36 128 454C128 608.64 253.36 734 408 734Z" fill="white"/>
<path fill-rule="evenodd" clip-rule="evenodd" d="M412.9 582.188C425.214 581.332 437.423 579.34 449.37 576.238C464.114 580.737 479.701 581.755 494.905 579.213C495.507 579.115 496.116 579.069 496.725 579.072C502.15 579.072 509.273 582.223 519.65 588.873V577.935C519.652 576.043 520.157 574.185 521.114 572.552C522.07 570.919 523.443 569.57 525.093 568.643C529.608 566.088 533.808 563.148 537.64 559.91C552.76 547.1 561.3 530.02 561.3 511.925C561.3 505.852 560.338 499.955 558.518 494.32C563.085 485.798 566.778 476.838 569.49 467.545C578.26 480.688 582.96 496.125 583 511.925C583 536.512 571.555 559.437 551.763 576.202C548.459 578.999 544.981 581.582 541.35 583.937V609.505C541.35 618.307 531.2 623.365 524.043 618.132C517.274 613.073 510.266 608.342 503.043 603.958C500.974 602.719 498.822 601.626 496.603 600.685C490.653 601.577 484.563 602.032 478.42 602.032C453.71 602.032 430.89 594.63 412.918 582.188H412.9ZM282.245 531.052C251.025 504.575 233 468.507 233 429.85C233 350.872 307.515 287.75 398.497 287.75C489.498 287.75 564.013 350.872 564.013 429.85C564.013 508.845 489.48 571.967 398.497 571.967C388.277 571.967 378.163 571.18 368.258 569.605C363.97 570.62 346.837 580.805 322.145 598.83C313.202 605.375 300.515 599.057 300.515 588.05V544.44C294.121 540.409 288.016 535.935 282.245 531.052V531.052ZM368.852 542.708C369.605 542.708 370.375 542.76 371.127 542.883C380.052 544.388 389.222 545.157 398.497 545.157C475.358 545.157 536.87 493.042 536.87 429.85C536.87 366.675 475.358 314.56 398.497 314.56C321.672 314.56 260.125 366.675 260.125 429.85C260.125 460.405 274.492 489.175 299.902 510.7C306.29 516.09 313.307 520.99 320.832 525.26C325.05 527.64 327.658 532.085 327.658 536.88V562.028C347.188 548.92 360.032 542.708 368.852 542.708V542.708ZM327.955 456.677C315.967 456.677 306.255 447.053 306.255 435.223C306.255 423.375 315.967 413.768 327.955 413.768C339.942 413.768 349.655 423.375 349.655 435.223C349.655 447.07 339.942 456.677 327.955 456.677ZM398.497 456.677C386.51 456.677 376.798 447.053 376.798 435.223C376.798 423.375 386.51 413.768 398.497 413.768C410.485 413.768 420.198 423.375 420.198 435.223C420.198 447.07 410.485 456.677 398.497 456.677V456.677ZM469.04 456.677C457.053 456.677 447.34 447.053 447.34 435.223C447.34 423.375 457.053 413.768 469.04 413.768C481.028 413.768 490.74 423.375 490.74 435.223C490.74 447.07 481.028 456.677 469.04 456.677Z" fill="#7DCFF4"/>
<path d="M719.523 377.277V339.727H916.81V377.277H840.382V587H795.95V377.277H719.523ZM981.043 590.743C969.291 590.743 958.706 588.65 949.288 584.464C939.951 580.198 932.546 573.92 927.072 565.629C921.679 557.339 918.983 547.116 918.983 534.962C918.983 524.498 920.915 515.845 924.778 509.003C928.642 502.161 933.914 496.688 940.595 492.582C947.276 488.477 954.802 485.378 963.173 483.286C971.625 481.112 980.358 479.543 989.374 478.577C1000.24 477.45 1009.05 476.444 1015.82 475.558C1022.58 474.592 1027.49 473.143 1030.55 471.212C1033.68 469.199 1035.25 466.1 1035.25 461.915V461.19C1035.25 452.095 1032.56 445.052 1027.16 440.061C1021.77 435.071 1014 432.575 1003.86 432.575C993.157 432.575 984.665 434.91 978.386 439.578C972.188 444.247 968.003 449.76 965.83 456.119L925.02 450.324C928.24 439.055 933.552 429.637 940.957 422.071C948.363 414.424 957.418 408.709 968.124 404.926C978.829 401.062 990.661 399.131 1003.62 399.131C1012.56 399.131 1021.45 400.177 1030.3 402.27C1039.16 404.363 1047.25 407.824 1054.57 412.653C1061.9 417.402 1067.77 423.882 1072.2 432.092C1076.71 440.303 1078.96 450.565 1078.96 462.881V587H1036.94V561.524H1035.5C1032.84 566.676 1029.1 571.505 1024.27 576.013C1019.52 580.44 1013.52 584.022 1006.28 586.759C999.113 589.415 990.702 590.743 981.043 590.743ZM992.392 558.626C1001.17 558.626 1008.77 556.896 1015.21 553.435C1021.65 549.893 1026.6 545.224 1030.06 539.429C1033.6 533.634 1035.38 527.315 1035.38 520.473V498.619C1034.01 499.746 1031.67 500.793 1028.37 501.759C1025.15 502.724 1021.53 503.57 1017.51 504.294C1013.48 505.018 1009.5 505.662 1005.55 506.226C1001.61 506.789 998.188 507.272 995.29 507.675C988.77 508.56 982.934 510.009 977.783 512.021C972.631 514.034 968.566 516.851 965.588 520.473C962.61 524.015 961.121 528.603 961.121 534.237C961.121 542.286 964.059 548.364 969.935 552.469C975.811 556.574 983.296 558.626 992.392 558.626ZM1166.62 339.727V587H1122.91V339.727H1166.62ZM1251.41 528.804L1251.29 476.041H1258.29L1324.94 401.545H1376.01L1294.03 492.824H1284.97L1251.41 528.804ZM1211.56 587V339.727H1255.27V587H1211.56ZM1327.95 587L1267.59 502.604L1297.05 471.815L1380.23 587H1327.95Z" fill="#3498DB"/>
<path d="M1407.07 587V339.727H1451.86V549.45H1560.77V587H1407.07ZM1597.72 587V401.545H1641.42V587H1597.72ZM1619.69 375.224C1612.77 375.224 1606.81 372.93 1601.82 368.342C1596.83 363.674 1594.33 358.08 1594.33 351.56C1594.33 344.959 1596.83 339.365 1601.82 334.777C1606.81 330.108 1612.77 327.774 1619.69 327.774C1626.69 327.774 1632.65 330.108 1637.56 334.777C1642.55 339.365 1645.04 344.959 1645.04 351.56C1645.04 358.08 1642.55 363.674 1637.56 368.342C1632.65 372.93 1626.69 375.224 1619.69 375.224ZM1730.07 478.335V587H1686.37V401.545H1728.14V433.058H1730.32C1734.58 422.675 1741.38 414.424 1750.72 408.307C1760.14 402.189 1771.77 399.131 1785.61 399.131C1798.41 399.131 1809.56 401.867 1819.06 407.341C1828.64 412.814 1836.04 420.743 1841.28 431.126C1846.59 441.51 1849.2 454.107 1849.12 468.918V587H1805.42V475.679C1805.42 463.283 1802.2 453.584 1795.76 446.581C1789.4 439.578 1780.58 436.077 1769.31 436.077C1761.67 436.077 1754.87 437.767 1748.91 441.148C1743.03 444.448 1738.41 449.237 1735.03 455.516C1731.73 461.794 1730.07 469.401 1730.07 478.335ZM1933.4 528.804L1933.28 476.041H1940.28L2006.93 401.545H2058L1976.02 492.824H1966.96L1933.4 528.804ZM1893.56 587V339.727H1937.26V587H1893.56ZM2009.95 587L1949.58 502.604L1979.04 471.815L2062.23 587H2009.95Z" fill="white"/>
</svg>
