<svg width="713" height="560" viewBox="0 0 713 560" fill="none" xmlns="http://www.w3.org/2000/svg">
<path d="M355.902 560C553.035 560 712.843 434.64 712.843 280C712.843 125.36 553.035 0 355.902 0C158.769 0 -1.03912 125.36 -1.03912 280C-1.03912 434.64 158.769 560 355.902 560Z" fill="#3498DB"/>
<path fill-rule="evenodd" clip-rule="evenodd" d="M362.149 408.188C377.846 407.332 393.41 405.34 408.64 402.238C427.436 406.737 447.306 407.755 466.688 405.213C467.455 405.115 468.231 405.069 469.008 405.072C475.924 405.072 485.003 408.223 498.232 414.872V403.935C498.235 402.043 498.879 400.185 500.098 398.552C501.317 396.919 503.068 395.57 505.171 394.643C510.926 392.088 516.28 389.147 521.166 385.91C540.441 373.1 551.328 356.02 551.328 337.925C551.328 331.852 550.101 325.955 547.78 320.32C553.603 311.798 558.31 302.838 561.768 293.545C572.948 306.688 578.939 322.125 578.99 337.925C578.99 362.512 564.401 385.438 539.169 402.202C534.958 404.999 530.524 407.582 525.895 409.938V435.505C525.895 444.307 512.956 449.365 503.832 444.133C495.204 439.073 486.27 434.342 477.061 429.958C474.424 428.719 471.681 427.626 468.852 426.685C461.267 427.578 453.503 428.033 445.673 428.033C414.173 428.033 385.082 420.63 362.171 408.188H362.149ZM195.591 357.052C155.792 330.575 132.814 294.508 132.814 255.85C132.814 176.872 227.805 113.75 343.788 113.75C459.794 113.75 554.785 176.872 554.785 255.85C554.785 334.845 459.772 397.967 343.788 397.967C330.76 397.967 317.866 397.18 305.239 395.605C299.773 396.62 277.933 406.805 246.455 424.83C235.055 431.375 218.881 425.057 218.881 414.05V370.44C210.73 366.409 202.947 361.935 195.591 357.052ZM305.997 368.708C306.957 368.708 307.938 368.76 308.897 368.883C320.275 370.388 331.965 371.158 343.788 371.158C441.769 371.158 520.184 319.042 520.184 255.85C520.184 192.675 441.769 140.56 343.788 140.56C245.853 140.56 167.393 192.675 167.393 255.85C167.393 286.405 185.708 315.175 218.101 336.7C226.243 342.09 235.189 346.99 244.782 351.26C250.158 353.64 253.482 358.085 253.482 362.88V388.027C278.379 374.92 294.754 368.708 305.997 368.708ZM253.862 282.677C238.58 282.677 226.199 273.053 226.199 261.223C226.199 249.375 238.58 239.768 253.862 239.768C269.143 239.768 281.525 249.375 281.525 261.223C281.525 273.07 269.143 282.677 253.862 282.677ZM343.788 282.677C328.507 282.677 316.126 273.053 316.126 261.223C316.126 249.375 328.507 239.768 343.788 239.768C359.07 239.768 371.451 249.375 371.451 261.223C371.451 273.07 359.07 282.677 343.788 282.677ZM433.715 282.677C418.434 282.677 406.052 273.053 406.052 261.223C406.052 249.375 418.434 239.768 433.715 239.768C448.997 239.768 461.378 249.375 461.378 261.223C461.378 273.07 448.997 282.677 433.715 282.677Z" fill="white"/>
</svg>
