<svg width="559" height="560" viewBox="0 0 559 560" fill="none" xmlns="http://www.w3.org/2000/svg">
<path d="M278.961 560C433.601 560 558.961 434.64 558.961 280C558.961 125.36 433.601 0 278.961 0C124.321 0 -1.03912 125.36 -1.03912 280C-1.03912 434.64 124.321 560 278.961 560Z" fill="#3498DB"/>
<path fill-rule="evenodd" clip-rule="evenodd" d="M283.861 408.188C296.175 407.332 308.383 405.34 320.331 402.238C335.075 406.737 350.662 407.755 365.866 405.213C366.468 405.115 367.076 405.069 367.686 405.072C373.111 405.072 380.233 408.223 390.611 414.873V403.935C390.613 402.043 391.118 400.185 392.074 398.552C393.031 396.919 394.404 395.57 396.053 394.643C400.568 392.088 404.768 389.148 408.601 385.91C423.721 373.1 432.261 356.02 432.261 337.925C432.261 331.852 431.298 325.955 429.478 320.32C434.046 311.798 437.738 302.838 440.451 293.545C449.221 306.688 453.92 322.125 453.961 337.925C453.961 362.512 442.516 385.437 422.723 402.202C419.42 404.999 415.942 407.582 412.311 409.937V435.505C412.311 444.307 402.161 449.365 395.003 444.132C388.235 439.073 381.227 434.342 374.003 429.958C371.935 428.719 369.783 427.626 367.563 426.685C361.613 427.577 355.523 428.032 349.381 428.032C324.671 428.032 301.851 420.63 283.878 408.188H283.861ZM153.206 357.052C121.986 330.575 103.961 294.507 103.961 255.85C103.961 176.872 178.476 113.75 269.458 113.75C360.458 113.75 434.973 176.872 434.973 255.85C434.973 334.845 360.441 397.967 269.458 397.967C259.238 397.967 249.123 397.18 239.218 395.605C234.931 396.62 217.798 406.805 193.106 424.83C184.163 431.375 171.476 425.057 171.476 414.05V370.44C165.081 366.409 158.977 361.935 153.206 357.052V357.052ZM239.813 368.708C240.566 368.708 241.336 368.76 242.088 368.883C251.013 370.388 260.183 371.157 269.458 371.157C346.318 371.157 407.831 319.042 407.831 255.85C407.831 192.675 346.318 140.56 269.458 140.56C192.633 140.56 131.086 192.675 131.086 255.85C131.086 286.405 145.453 315.175 170.863 336.7C177.251 342.09 184.268 346.99 191.793 351.26C196.011 353.64 198.618 358.085 198.618 362.88V388.028C218.148 374.92 230.993 368.708 239.813 368.708V368.708ZM198.916 282.677C186.928 282.677 177.216 273.053 177.216 261.223C177.216 249.375 186.928 239.768 198.916 239.768C210.903 239.768 220.616 249.375 220.616 261.223C220.616 273.07 210.903 282.677 198.916 282.677ZM269.458 282.677C257.471 282.677 247.758 273.053 247.758 261.223C247.758 249.375 257.471 239.768 269.458 239.768C281.446 239.768 291.158 249.375 291.158 261.223C291.158 273.07 281.446 282.677 269.458 282.677V282.677ZM340.001 282.677C328.013 282.677 318.301 273.053 318.301 261.223C318.301 249.375 328.013 239.768 340.001 239.768C351.988 239.768 361.701 249.375 361.701 261.223C361.701 273.07 351.988 282.677 340.001 282.677Z" fill="white"/>
</svg>
