<svg width="1384" height="271" viewBox="0 0 1384 271" fill="none" xmlns="http://www.w3.org/2000/svg">
<path d="M0.920454 51.1087V12.4545H204.01V51.1087H125.335V267H79.5959V51.1087H0.920454ZM270.132 270.853C258.035 270.853 247.138 268.699 237.444 264.39C227.832 259.998 220.209 253.535 214.575 245.001C209.023 236.466 206.247 225.943 206.247 213.431C206.247 202.659 208.236 193.752 212.213 186.709C216.19 179.666 221.618 174.031 228.495 169.805C235.372 165.58 243.12 162.389 251.737 160.235C260.438 157.998 269.428 156.382 278.708 155.388C289.894 154.228 298.967 153.192 305.928 152.281C312.888 151.286 317.942 149.795 321.091 147.806C324.322 145.735 325.938 142.544 325.938 138.236V137.49C325.938 128.127 323.162 120.877 317.611 115.739C312.059 110.602 304.063 108.033 293.623 108.033C282.603 108.033 273.861 110.436 267.398 115.242C261.018 120.048 256.709 125.724 254.472 132.27L212.462 126.304C215.776 114.704 221.245 105.009 228.868 97.2202C236.491 89.3485 245.813 83.4654 256.833 79.571C267.853 75.5938 280.034 73.6051 293.374 73.6051C302.572 73.6051 311.728 74.6823 320.842 76.8366C329.957 78.991 338.284 82.554 345.825 87.5256C353.365 92.4143 359.414 99.0845 363.971 107.536C368.611 115.988 370.931 126.553 370.931 139.23V267H327.678V240.775H326.187C323.452 246.078 319.599 251.049 314.628 255.69C309.739 260.247 303.566 263.934 296.109 266.751C288.734 269.486 280.075 270.853 270.132 270.853ZM281.815 237.792C290.847 237.792 298.677 236.01 305.306 232.447C311.935 228.802 317.031 223.996 320.594 218.03C324.24 212.064 326.062 205.559 326.062 198.516V176.02C324.654 177.18 322.251 178.257 318.854 179.251C315.539 180.246 311.811 181.116 307.668 181.862C303.525 182.607 299.423 183.27 295.363 183.85C291.303 184.43 287.781 184.927 284.798 185.342C278.087 186.253 272.079 187.745 266.776 189.816C261.473 191.888 257.289 194.788 254.223 198.516C251.157 202.162 249.624 206.885 249.624 212.685C249.624 220.971 252.649 227.227 258.697 231.453C264.746 235.679 272.452 237.792 281.815 237.792ZM461.165 12.4545V267H416.173V12.4545H461.165ZM548.448 207.092L548.324 152.778H555.532L624.14 76.0909H676.715L592.322 170.054H583.001L548.448 207.092ZM507.432 267V12.4545H552.425V267H507.432ZM627.248 267L565.103 180.121L595.43 148.428L681.065 267H627.248Z" fill="white"/>
<path d="M708.689 267V12.4545H754.8V228.346H866.909V267H708.689ZM904.942 267V76.0909H949.935V267H904.942ZM927.563 48.9957C920.437 48.9957 914.305 46.6342 909.168 41.9112C904.031 37.1053 901.462 31.3466 901.462 24.6349C901.462 17.8404 904.031 12.0817 909.168 7.35865C914.305 2.55278 920.437 0.14985 927.563 0.14985C934.772 0.14985 940.903 2.55278 945.958 7.35865C951.095 12.0817 953.664 17.8404 953.664 24.6349C953.664 31.3466 951.095 37.1053 945.958 41.9112C940.903 46.6342 934.772 48.9957 927.563 48.9957ZM1041.19 155.139V267H996.202V76.0909H1039.21V108.531H1041.44C1045.83 97.8416 1052.84 89.3485 1062.45 83.0511C1072.14 76.7538 1084.12 73.6051 1098.37 73.6051C1111.54 73.6051 1123.02 76.4223 1132.8 82.0568C1142.66 87.6913 1150.28 95.853 1155.67 106.542C1161.13 117.231 1163.83 130.198 1163.74 145.445V267H1118.75V152.405C1118.75 139.644 1115.44 129.66 1108.81 122.451C1102.26 115.242 1093.19 111.638 1081.59 111.638C1073.72 111.638 1066.72 113.378 1060.58 116.858C1054.54 120.255 1049.77 125.185 1046.29 131.648C1042.89 138.112 1041.19 145.942 1041.19 155.139ZM1250.5 207.092L1250.37 152.778H1257.58L1326.19 76.0909H1378.77L1294.37 170.054H1285.05L1250.5 207.092ZM1209.48 267V12.4545H1254.48V267H1209.48ZM1329.3 267L1267.15 180.121L1297.48 148.428L1383.12 267H1329.3Z" fill="#3498DB"/>
</svg>
